<svg width="41" height="41" fill="none" xmlns="http://www.w3.org/2000/svg"><g clip-path="url(#clip0)" fill="#000"><path d="M20.5 7.471a5.46 5.46 0 00-3.125.977.606.606 0 00-.154.839c.188.274.56.344.833.155a4.273 4.273 0 012.446-.764c2.383 0 4.321 1.953 4.321 4.353 0 2.4-1.938 4.354-4.32 4.354-2.384 0-4.322-1.953-4.322-4.354 0-.708.163-1.383.485-2.006a.605.605 0 00-.255-.814.597.597 0 00-.807.257 5.61 5.61 0 00-.62 2.563c0 3.066 2.475 5.56 5.518 5.56 3.043 0 5.519-2.494 5.519-5.56 0-3.066-2.476-5.56-5.519-5.56z"/><path d="M40.955 40.165l-5.91-14.307a.599.599 0 00-.553-.372h-5.89c1.146-1.561 2.1-3.116 2.844-4.643 1.32-2.706 1.988-5.335 1.988-7.812C33.434 5.846 27.633 0 20.502 0 13.368 0 7.565 5.846 7.565 13.031c0 2.477.67 5.106 1.99 7.812.744 1.527 1.697 3.082 2.843 4.643h-5.89a.599.599 0 00-.552.372l-4.028 9.749a.605.605 0 00.553.835.6.6 0 00.553-.371l.574-1.392h4.077l-2.113 5.114H1.497l.612-1.482a.605.605 0 00-.322-.789.597.597 0 00-.783.325l-.958 2.318a.607.607 0 00.055.566A.597.597 0 00.6 41h39.803c.2 0 .387-.1.498-.269a.607.607 0 00.055-.566zM8.765 13.03c0-6.52 5.264-11.824 11.735-11.824 6.472 0 11.737 5.304 11.737 11.824 0 2.734-.943 7.103-5.305 12.671l-.012.016a39.95 39.95 0 01-.696.861 46.07 46.07 0 01-5.724 5.746 45.997 45.997 0 01-5.708-5.727 40.005 40.005 0 01-.712-.881l-.01-.014c-4.362-5.568-5.306-9.937-5.306-12.672zM6.908 26.693h4.076l-1.487 3.6H5.422l1.487-3.6zm3.501 13.1l3.743-9.06 10.652 9.06H10.41zm16.251 0L14.301 29.28a.595.595 0 00-.939.23L9.113 39.792H6.871l2.266-5.485a.607.607 0 00-.055-.567.598.598 0 00-.498-.268H4.108l.815-1.974h4.975a.6.6 0 00.553-.372l1.831-4.434h1.04c.18.226.364.453.552.68 3.09 3.718 6.132 6.105 6.26 6.205a.595.595 0 00.733 0c.07-.055 1.021-.802 2.376-2.08h6.781c.33 0 .599-.27.599-.603a.601.601 0 00-.599-.603h-5.547a46.29 46.29 0 002.65-2.92c.189-.226.372-.453.552-.68h6.413l1.487 3.6h-3.16a.6.6 0 00-.598.603.6.6 0 00.598.604h3.658l.816 1.974H24.555a.599.599 0 00-.56.392.606.606 0 00.168.667l6.016 5.261h-3.518zm5.345 0l-5.848-5.114H37.39l2.113 5.114h-7.498z"/></g><defs><clipPath id="clip0"><path fill="#fff" d="M0 0h41v41H0z"/></clipPath></defs></svg>