<svg width="39" height="40" fill="none" xmlns="http://www.w3.org/2000/svg"><g clip-path="url(#clip0)" fill="#000"><path d="M34.217 30.664l-5.427-5.567c-.58-.595-1.324-.902-2.096-.862-.78.039-1.547.423-2.216 1.109-2.008 2.06-3.35 3.09-4.485 3.444-1.109.346-2.116.075-3.477-.938a.75.75 0 00-1.063.173.794.794 0 00.168 1.091c1.75 1.302 3.235 1.663 4.816 1.169.91-.285 1.853-.85 3.006-1.83l7.293 7.48c-4.352 2.702-12.759 5.407-22.42-4.459-9.622-9.912-6.985-18.535-4.35-22.999l7.293 7.48c-.956 1.184-1.507 2.15-1.785 3.084-.481 1.622-.13 3.145 1.14 4.94a.75.75 0 001.064.173.794.794 0 00.169-1.091c-.988-1.396-1.253-2.43-.915-3.567.345-1.164 1.35-2.54 3.357-4.6 1.362-1.396 1.459-3.173.241-4.422L9.103 4.905a2.841 2.841 0 00-2.287-.83c-1.364.13-2.684 1.21-3.923 3.21-1.402 2.261-3.04 5.904-2.882 10.41.178 5.12 2.61 10.127 7.227 14.884 4.636 4.734 9.518 7.227 14.51 7.41.197.008.393.011.587.011 4.122 0 7.457-1.594 9.563-2.967 1.95-1.27 3.002-2.625 3.128-4.023a2.991 2.991 0 00-.809-2.346zM6.933 5.634a1.36 1.36 0 011.071.355l.015.015 5.434 5.573c.609.625.521 1.431-.24 2.213a42.4 42.4 0 00-.942.995l-7.43-7.622c.892-1.147 1.612-1.475 2.092-1.53zM33.51 32.865c-.045.497-.36 1.244-1.494 2.17l-7.43-7.62c.307-.296.63-.617.97-.966.396-.408.816-.634 1.213-.654.43-.021.75.21.944.407l5.434 5.574.018.018c.004.004.404.418.345 1.071zm.046-27.281C30.046 1.984 25.378 0 20.413 0c-1.347 0-2.443 1.124-2.443 2.505 0 1.382 1.096 2.506 2.443 2.506 3.66 0 7.1 1.462 9.689 4.116 2.587 2.654 4.012 6.183 4.012 9.937 0 1.381 1.096 2.505 2.443 2.505S39 20.445 39 19.064c0-5.092-1.933-9.88-5.444-13.48zm3.001 14.423a.932.932 0 01-.919-.943c0-4.171-1.584-8.093-4.46-11.042-2.875-2.95-6.698-4.574-10.765-4.574a.932.932 0 01-.92-.943c0-.52.413-.942.92-.942 4.558 0 8.843 1.82 12.066 5.126 3.223 3.305 4.998 7.7 4.998 12.375 0 .52-.413.943-.92.943z"/><path d="M24.753 14.613a6.336 6.336 0 011.797 4.45c0 1.382 1.096 2.506 2.442 2.506 1.348 0 2.443-1.124 2.443-2.505 0-3.02-1.146-5.859-3.228-7.994-2.082-2.135-4.85-3.311-7.794-3.311-1.347 0-2.443 1.124-2.443 2.505 0 1.382 1.096 2.506 2.443 2.506 1.64 0 3.18.654 4.34 1.843zm-5.26-4.349c0-.52.413-.943.92-.943 2.537 0 4.922 1.014 6.717 2.854 1.794 1.84 2.782 4.287 2.782 6.889 0 .52-.412.943-.92.943a.932.932 0 01-.919-.943 7.909 7.909 0 00-2.243-5.556 7.513 7.513 0 00-5.417-2.3.932.932 0 01-.92-.944zm-5.99 15.106c-.42 0-.761.35-.761.781 0 .431.34.781.762.781.42 0 .761-.35.761-.781a.772.772 0 00-.761-.781z"/></g><defs><clipPath id="clip0"><path fill="#fff" d="M0 0h39v40H0z"/></clipPath></defs></svg>